<svg xmlns="http://www.w3.org/2000/svg" version="1.1" xmlns:xlink="http://www.w3.org/1999/xlink" xmlns:svgjs="http://svgjs.dev/svgjs" width="2000" height="2855" viewBox="0 0 2000 2855"><g transform="matrix(1,0,0,1,1.6223560339905134,1.155870445344135)"><svg viewBox="0 0 173 247" data-background-color="#ffffff" preserveAspectRatio="xMidYMid meet" height="2855" width="2000" xmlns="http://www.w3.org/2000/svg" xmlns:xlink="http://www.w3.org/1999/xlink"><g id="tight-bounds" transform="matrix(1,0,0,1,-0.14033379694018322,-0.09999999999999432)"><svg viewBox="0 0 173.2806675938804 247.2" height="247.2" width="173.2806675938804"><g><svg viewBox="0 0 173.2806675938804 247.2" height="247.2" width="173.2806675938804"><g><svg viewBox="0 0 173.2806675938804 247.2" height="247.2" width="173.2806675938804"><g><svg viewBox="0 0 173.2806675938804 247.2" height="247.2" width="173.2806675938804"><g><svg viewBox="0 0 173.2806675938804 247.2" height="247.2" width="173.2806675938804"><g id="textblocktransform"><svg viewBox="0 0 173.2806675938804 247.2" height="247.2" width="173.2806675938804" id="textblock"><g><svg viewBox="0 0 173.2806675938804 247.2" height="247.2" width="173.2806675938804"><g transform="matrix(1,0,0,1,0,0)"><svg width="173.2806675938804" viewBox="1.5 -35.45000076293945 25.200000762939453 35.95000076293945" height="247.2" data-palette-color="#0063db"><path d="M16.8-35.45Q20.45-35.45 23.23-34.43 26-33.4 26-31.65 26-29.9 24.68-27.33 23.35-24.75 22.45-24.75L22.45-24.75Q22.2-24.75 21.88-25.03 21.55-25.3 20.38-25.63 19.2-25.95 18.35-25.95L18.35-25.95Q15.45-25.95 13.68-23.9 11.9-21.85 11.9-17.63 11.9-13.4 13.73-11.35 15.55-9.3 18.35-9.3L18.35-9.3Q19.5-9.3 20.93-9.63 22.35-9.95 22.95-10.55L22.95-10.55Q23.05-10.65 23.35-10.65 23.65-10.65 24.48-9.53 25.3-8.4 26-6.58 26.7-4.75 26.7-3.75L26.7-3.75Q26.7-1.8 23.7-0.65 20.7 0.5 16.6 0.5L16.6 0.5Q10 0.5 5.75-4.15 1.5-8.8 1.5-17.28 1.5-25.75 5.88-30.6 10.25-35.45 16.8-35.45L16.8-35.45Z" opacity="1" transform="matrix(1,0,0,1,0,0)" fill="#0063db" class="wordmark-text-0" data-fill-palette-color="primary" id="text-0"></path></svg></g></svg></g></svg></g></svg></g><g></g></svg></g></svg></g></svg></g><defs></defs></svg><rect width="173.2806675938804" height="247.2" fill="none" stroke="none" visibility="hidden"></rect></g></svg></g></svg>