<svg version="1.1" id="Layer_1" xmlns="http://www.w3.org/2000/svg" xmlns:xlink="http://www.w3.org/1999/xlink" x="0px" y="0px"
	 width="100%" viewBox="0 0 2000 1500" enable-background="new 0 0 2000 1500" xml:space="preserve">
<path fill="#FFFFFF" opacity="1.000000" stroke="none" 
	d="
M1354.000000,1501.000000 
	C902.666809,1501.000000 451.833588,1501.000000 1.000302,1501.000000 
	C1.000202,1001.000305 1.000202,501.000580 1.000101,1.000638 
	C667.666199,1.000425 1334.332397,1.000425 2000.998901,1.000213 
	C2000.999268,500.999359 2000.999268,1000.998718 2000.999634,1500.999023 
	C1785.500000,1501.000000 1570.000000,1501.000000 1354.000000,1501.000000 
M970.658508,276.129517 
	C936.144958,285.503174 903.494324,299.668335 871.379700,315.109222 
	C811.565430,343.868256 754.166748,376.898468 698.994873,413.771515 
	C668.506165,434.148102 639.119202,455.934875 611.698914,480.426422 
	C590.056091,499.757629 577.308289,523.131226 571.618896,551.567810 
	C563.099670,594.148682 560.323914,637.265259 557.122986,680.366821 
	C556.004395,695.428833 556.015747,710.599121 556.066589,725.718140 
	C556.158386,753.001892 556.516296,780.287354 557.071045,807.565796 
	C557.330872,820.342346 558.104858,833.118835 559.010376,845.869446 
	C560.172791,862.238281 561.091980,878.661255 563.227234,894.914917 
	C565.910889,915.343384 569.488831,935.665161 573.101562,955.958069 
	C577.452942,980.399292 588.771729,1001.142395 607.719604,1017.369690 
	C623.775391,1031.120117 639.502441,1045.356323 656.410889,1057.991211 
	C717.529724,1103.662354 782.960327,1142.423584 850.983398,1176.822998 
	C889.023071,1196.059692 927.699402,1213.871704 968.968140,1225.339233 
	C985.704895,1229.989990 1002.460999,1231.932983 1019.737671,1228.256592 
	C1044.448975,1222.998047 1067.953003,1214.238525 1091.049316,1204.318359 
	C1163.160522,1173.345337 1231.206787,1134.883423 1296.666748,1091.767334 
	C1331.749756,1068.659546 1365.913574,1044.307129 1396.119385,1014.843933 
	C1409.479370,1001.812317 1419.685425,987.057434 1424.679688,968.755981 
	C1431.229858,944.752563 1435.413208,920.323242 1437.714844,895.647888 
	C1440.415649,866.691040 1442.132568,837.635803 1443.870972,808.598938 
	C1444.704224,794.681580 1444.850708,780.708557 1444.858398,766.760498 
	C1444.865967,752.809204 1444.331055,738.857117 1443.999268,724.906189 
	C1443.691162,711.958923 1443.440186,699.008972 1442.975098,686.067017 
	C1442.474609,672.133362 1441.952271,658.195312 1441.089722,644.280823 
	C1439.141846,612.860779 1435.264038,581.697754 1429.108398,550.786499 
	C1424.021606,525.241943 1413.625244,503.091919 1394.101929,485.067474 
	C1373.972046,466.482697 1352.768677,449.348358 1330.523926,433.467316 
	C1278.532471,396.349457 1223.897827,363.518188 1167.293457,333.975433 
	C1127.139771,313.018524 1086.305420,293.563751 1043.020630,279.709686 
	C1019.450012,272.165405 995.778870,268.408600 970.658508,276.129517 
z"/>
<path fill="#4891FC" opacity="1.000000" stroke="none" 
	d="
M971.062012,276.050171 
	C995.778870,268.408600 1019.450012,272.165405 1043.020630,279.709686 
	C1086.305420,293.563751 1127.139771,313.018524 1167.293457,333.975433 
	C1223.897827,363.518188 1278.532471,396.349457 1330.523926,433.467316 
	C1352.768677,449.348358 1373.972046,466.482697 1394.101929,485.067474 
	C1413.625244,503.091919 1424.021606,525.241943 1429.108398,550.786499 
	C1435.264038,581.697754 1439.141846,612.860779 1441.089722,644.280823 
	C1441.952271,658.195312 1442.474609,672.133362 1442.975098,686.067017 
	C1443.440186,699.008972 1443.691162,711.958923 1443.999268,724.906189 
	C1444.331055,738.857117 1444.865967,752.809204 1444.858398,766.760498 
	C1444.850708,780.708557 1444.704224,794.681580 1443.870972,808.598938 
	C1442.132568,837.635803 1440.415649,866.691040 1437.714844,895.647888 
	C1435.413208,920.323242 1431.229858,944.752563 1424.679688,968.755981 
	C1419.685425,987.057434 1409.479370,1001.812317 1396.119385,1014.843933 
	C1365.913574,1044.307129 1331.749756,1068.659546 1296.666748,1091.767334 
	C1231.206787,1134.883423 1163.160522,1173.345337 1091.049316,1204.318359 
	C1067.953003,1214.238525 1044.448975,1222.998047 1019.737671,1228.256592 
	C1002.460999,1231.932983 985.704895,1229.989990 968.968140,1225.339233 
	C927.699402,1213.871704 889.023071,1196.059692 850.983398,1176.822998 
	C782.960327,1142.423584 717.529724,1103.662354 656.410889,1057.991211 
	C639.502441,1045.356323 623.775391,1031.120117 607.719604,1017.369690 
	C588.771729,1001.142395 577.452942,980.399292 573.101562,955.958069 
	C569.488831,935.665161 565.910889,915.343384 563.227234,894.914917 
	C561.091980,878.661255 560.172791,862.238281 559.010376,845.869446 
	C558.104858,833.118835 557.330872,820.342346 557.071045,807.565796 
	C556.516296,780.287354 556.158386,753.001892 556.066589,725.718140 
	C556.015747,710.599121 556.004395,695.428833 557.122986,680.366821 
	C560.323914,637.265259 563.099670,594.148682 571.618896,551.567810 
	C577.308289,523.131226 590.056091,499.757629 611.698914,480.426422 
	C639.119202,455.934875 668.506165,434.148102 698.994873,413.771515 
	C754.166748,376.898468 811.565430,343.868256 871.379700,315.109222 
	C903.494324,299.668335 936.144958,285.503174 971.062012,276.050171 
M1258.115601,1083.594116 
	C1295.716797,1059.797852 1332.704346,1035.162354 1366.260986,1005.733398 
	C1383.407471,990.696045 1396.551514,973.688660 1401.355713,950.397461 
	C1408.742798,914.583923 1411.832275,878.389099 1414.077515,842.042053 
	C1414.843018,829.649963 1415.440674,817.243652 1415.864990,804.835327 
	C1416.308960,791.849243 1416.882690,778.844971 1416.644897,765.862488 
	C1415.987305,729.968323 1415.335205,694.065735 1413.924072,658.196228 
	C1412.615112,624.918030 1408.986206,591.847107 1402.996460,559.030273 
	C1398.818237,536.138428 1389.726318,516.193542 1371.433838,501.165985 
	C1356.257202,488.698029 1341.532715,475.594604 1325.673462,464.057220 
	C1260.063599,416.326935 1190.114380,375.771729 1117.292847,340.139496 
	C1088.136597,325.873077 1058.472046,312.781311 1027.194214,303.643616 
	C1010.832031,298.863434 994.494873,297.256378 978.104187,302.692108 
	C960.916748,308.392059 943.543823,313.746368 926.856812,320.702698 
	C872.202576,343.486603 820.267212,371.674622 769.559875,402.115570 
	C722.547241,430.338501 676.451965,459.924408 634.925476,496.055481 
	C617.709778,511.034515 604.611572,528.037903 599.689148,551.291199 
	C590.313782,595.579285 587.954651,640.523254 585.121948,685.441650 
	C584.085266,701.881287 584.286499,718.413391 584.319824,734.902527 
	C584.365295,757.393860 584.622559,779.888062 585.114319,802.373962 
	C585.418396,816.280151 586.105408,830.187744 587.020203,844.068420 
	C588.167114,861.472290 589.218445,878.908386 591.246338,896.221008 
	C593.237183,913.217041 596.324524,930.088013 599.067871,946.991638 
	C602.538452,968.376221 612.383057,986.309204 629.044739,1000.201538 
	C645.025940,1013.526550 660.738953,1027.272949 677.550232,1039.484497 
	C736.820190,1082.537476 799.840332,1119.503662 865.128967,1152.611816 
	C899.872131,1170.230225 935.118652,1186.730103 972.577515,1198.002930 
	C989.484680,1203.090820 1006.385925,1204.963867 1023.434326,1199.209717 
	C1040.125244,1193.576050 1057.076172,1188.501831 1073.284790,1181.687744 
	C1137.594849,1154.651367 1198.309326,1120.726318 1258.115601,1083.594116 
z"/>
<path fill="#FBFDFF" opacity="1.000000" stroke="none" 
	d="
M1257.808472,1083.787842 
	C1198.309326,1120.726318 1137.594849,1154.651367 1073.284790,1181.687744 
	C1057.076172,1188.501831 1040.125244,1193.576050 1023.434326,1199.209717 
	C1006.385925,1204.963867 989.484680,1203.090820 972.577515,1198.002930 
	C935.118652,1186.730103 899.872131,1170.230225 865.128967,1152.611816 
	C799.840332,1119.503662 736.820190,1082.537476 677.550232,1039.484497 
	C660.738953,1027.272949 645.025940,1013.526550 629.044739,1000.201538 
	C612.383057,986.309204 602.538452,968.376221 599.067871,946.991638 
	C596.324524,930.088013 593.237183,913.217041 591.246338,896.221008 
	C589.218445,878.908386 588.167114,861.472290 587.020203,844.068420 
	C586.105408,830.187744 585.418396,816.280151 585.114319,802.373962 
	C584.622559,779.888062 584.365295,757.393860 584.319824,734.902527 
	C584.286499,718.413391 584.085266,701.881287 585.121948,685.441650 
	C587.954651,640.523254 590.313782,595.579285 599.689148,551.291199 
	C604.611572,528.037903 617.709778,511.034515 634.925476,496.055481 
	C676.451965,459.924408 722.547241,430.338501 769.559875,402.115570 
	C820.267212,371.674622 872.202576,343.486603 926.856812,320.702698 
	C943.543823,313.746368 960.916748,308.392059 978.104187,302.692108 
	C994.494873,297.256378 1010.832031,298.863434 1027.194214,303.643616 
	C1058.472046,312.781311 1088.136597,325.873077 1117.292847,340.139496 
	C1190.114380,375.771729 1260.063599,416.326935 1325.673462,464.057220 
	C1341.532715,475.594604 1356.257202,488.698029 1371.433838,501.165985 
	C1389.726318,516.193542 1398.818237,536.138428 1402.996460,559.030273 
	C1408.986206,591.847107 1412.615112,624.918030 1413.924072,658.196228 
	C1415.335205,694.065735 1415.987305,729.968323 1416.644897,765.862488 
	C1416.882690,778.844971 1416.308960,791.849243 1415.864990,804.835327 
	C1415.440674,817.243652 1414.843018,829.649963 1414.077515,842.042053 
	C1411.832275,878.389099 1408.742798,914.583923 1401.355713,950.397461 
	C1396.551514,973.688660 1383.407471,990.696045 1366.260986,1005.733398 
	C1332.704346,1035.162354 1295.716797,1059.797852 1257.808472,1083.787842 
M1403.165771,648.396057 
	C1399.759155,619.993591 1396.740845,591.537292 1392.818481,563.206238 
	C1389.879639,541.981201 1381.102417,523.372009 1364.425415,509.161346 
	C1353.145020,499.549011 1342.214355,489.466248 1330.420166,480.526794 
	C1269.579590,434.412567 1204.036499,395.859741 1136.249634,361.013184 
	C1103.815674,344.340210 1070.770020,329.025940 1036.110840,317.403412 
	C1016.038635,310.672394 995.772278,307.753967 975.221619,314.460175 
	C959.423401,319.615509 943.590027,324.877075 928.301636,331.343109 
	C864.814392,358.194366 804.791321,391.671234 746.519714,428.307556 
	C708.149475,452.431549 670.546875,477.667511 637.140625,508.637085 
	C623.281433,521.485352 613.880554,536.450500 609.812866,555.124939 
	C600.187134,599.315369 597.199646,644.227539 595.238220,689.175659 
	C593.953857,718.608215 594.287842,748.149902 594.956360,777.618652 
	C595.671204,809.125977 596.898987,840.660767 599.294617,872.077454 
	C600.986572,894.264648 604.823975,916.300110 608.021362,938.357300 
	C611.375244,961.494202 621.510620,981.016296 639.886414,995.921997 
	C653.850525,1007.248901 667.298218,1019.277405 681.798767,1029.866577 
	C743.814453,1075.154175 809.942627,1113.684448 878.613647,1147.900513 
	C908.864319,1162.973145 939.575195,1177.069336 972.112183,1186.607544 
	C985.634827,1190.571777 999.159241,1193.723511 1013.687622,1190.469604 
	C1036.899292,1185.270996 1058.895020,1176.843872 1080.554077,1167.388550 
	C1135.893311,1143.229858 1188.687988,1114.223022 1240.106201,1082.684448 
	C1279.032104,1058.808472 1316.793335,1033.297485 1352.160400,1004.232605 
	C1375.329834,985.191833 1389.827148,962.372498 1394.462891,932.211060 
	C1400.080200,895.663330 1403.244873,858.975586 1404.836792,822.145081 
	C1406.116577,792.537476 1406.430176,762.858398 1406.138672,733.221130 
	C1405.863647,705.251953 1404.239624,677.296143 1403.165771,648.396057 
z"/>
<path fill="#4790FC" opacity="1.000000" stroke="none" 
	d="
M1403.187378,648.865234 
	C1404.239624,677.296143 1405.863647,705.251953 1406.138672,733.221130 
	C1406.430176,762.858398 1406.116577,792.537476 1404.836792,822.145081 
	C1403.244873,858.975586 1400.080200,895.663330 1394.462891,932.211060 
	C1389.827148,962.372498 1375.329834,985.191833 1352.160400,1004.232605 
	C1316.793335,1033.297485 1279.032104,1058.808472 1240.106201,1082.684448 
	C1188.687988,1114.223022 1135.893311,1143.229858 1080.554077,1167.388550 
	C1058.895020,1176.843872 1036.899292,1185.270996 1013.687622,1190.469604 
	C999.159241,1193.723511 985.634827,1190.571777 972.112183,1186.607544 
	C939.575195,1177.069336 908.864319,1162.973145 878.613647,1147.900513 
	C809.942627,1113.684448 743.814453,1075.154175 681.798767,1029.866577 
	C667.298218,1019.277405 653.850525,1007.248901 639.886414,995.921997 
	C621.510620,981.016296 611.375244,961.494202 608.021362,938.357300 
	C604.823975,916.300110 600.986572,894.264648 599.294617,872.077454 
	C596.898987,840.660767 595.671204,809.125977 594.956360,777.618652 
	C594.287842,748.149902 593.953857,718.608215 595.238220,689.175659 
	C597.199646,644.227539 600.187134,599.315369 609.812866,555.124939 
	C613.880554,536.450500 623.281433,521.485352 637.140625,508.637085 
	C670.546875,477.667511 708.149475,452.431549 746.519714,428.307556 
	C804.791321,391.671234 864.814392,358.194366 928.301636,331.343109 
	C943.590027,324.877075 959.423401,319.615509 975.221619,314.460175 
	C995.772278,307.753967 1016.038635,310.672394 1036.110840,317.403412 
	C1070.770020,329.025940 1103.815674,344.340210 1136.249634,361.013184 
	C1204.036499,395.859741 1269.579590,434.412567 1330.420166,480.526794 
	C1342.214355,489.466248 1353.145020,499.549011 1364.425415,509.161346 
	C1381.102417,523.372009 1389.879639,541.981201 1392.818481,563.206238 
	C1396.740845,591.537292 1399.759155,619.993591 1403.187378,648.865234 
M1162.024536,604.500000 
	C1162.024536,570.087769 1162.024536,535.675537 1162.024536,501.411804 
	C1132.542847,501.411804 1103.820435,501.411804 1074.888428,501.411804 
	C1074.888428,503.983948 1074.888550,506.144806 1074.888550,508.305664 
	C1074.888550,619.287781 1074.931519,730.269958 1074.805908,841.251892 
	C1074.795898,850.041443 1074.374023,858.964722 1072.838501,867.593628 
	C1067.868286,895.525879 1053.913696,916.905396 1026.102539,926.757141 
	C1009.006714,932.813110 991.544006,932.325745 974.171631,927.320557 
	C950.416016,920.476196 934.780518,905.605530 929.407410,881.131470 
	C927.362183,871.815369 926.470398,862.246033 925.005127,852.473511 
	C896.855103,852.473511 868.136292,852.473511 838.434998,852.473511 
	C839.294556,862.435791 839.658813,872.069092 841.022095,881.558838 
	C848.622742,934.466064 877.405273,970.627319 927.677979,988.988220 
	C963.342285,1002.013794 1000.198303,1004.144043 1037.418457,997.739990 
	C1067.569946,992.552185 1094.721680,980.358948 1117.150146,959.088745 
	C1148.516602,929.342224 1161.739014,891.839539 1161.907959,849.460266 
	C1162.232300,768.141357 1162.016357,686.820190 1162.024536,604.500000 
z"/>
<path fill="#FFFFFF" opacity="1.000000" stroke="none" 
	d="
M1162.024536,605.000000 
	C1162.016357,686.820190 1162.232300,768.141357 1161.907959,849.460266 
	C1161.739014,891.839539 1148.516602,929.342224 1117.150146,959.088745 
	C1094.721680,980.358948 1067.569946,992.552185 1037.418457,997.739990 
	C1000.198303,1004.144043 963.342285,1002.013794 927.677979,988.988220 
	C877.405273,970.627319 848.622742,934.466064 841.022095,881.558838 
	C839.658813,872.069092 839.294556,862.435791 838.434998,852.473511 
	C868.136292,852.473511 896.855103,852.473511 925.005127,852.473511 
	C926.470398,862.246033 927.362183,871.815369 929.407410,881.131470 
	C934.780518,905.605530 950.416016,920.476196 974.171631,927.320557 
	C991.544006,932.325745 1009.006714,932.813110 1026.102539,926.757141 
	C1053.913696,916.905396 1067.868286,895.525879 1072.838501,867.593628 
	C1074.374023,858.964722 1074.795898,850.041443 1074.805908,841.251892 
	C1074.931519,730.269958 1074.888550,619.287781 1074.888550,508.305664 
	C1074.888550,506.144806 1074.888428,503.983948 1074.888428,501.411804 
	C1103.820435,501.411804 1132.542847,501.411804 1162.024536,501.411804 
	C1162.024536,535.675537 1162.024536,570.087769 1162.024536,605.000000 
z"/>
</svg>